<?xml version="1.0" encoding="utf-8"?>
<!-- Generator: Adobe Illustrator 25.0.0, SVG Export Plug-In . SVG Version: 6.00 Build 0)  -->
<svg version="1.1" id="Layer_1" xmlns="http://www.w3.org/2000/svg" xmlns:xlink="http://www.w3.org/1999/xlink" x="0px" y="0px"
	 viewBox="0 0 1366 768" style="enable-background:new 0 0 1366 768;" xml:space="preserve">
<style type="text/css">
	.st0{fill:none;}
	.st1{opacity:0.4;}
	.st2{fill:#1D1D1B;}
	.st3{opacity:0.1;fill:url(#New_Pattern);}
</style>
<pattern  width="820.6" height="500" patternUnits="userSpaceOnUse" id="New_Pattern" viewBox="79.8 -712.5 820.6 500" style="overflow:visible;">
	<g>
		<rect x="79.8" y="-712.5" class="st0" width="820.6" height="500"/>
		<g>
			<g class="st1">
				<g>
					<path class="st2" d="M331.8-765.5l0-0.1l-4.6,0.1H70.7v257.8h16.8v-0.2c13.1-0.2,26.3-1.5,39.3-3.8
						c16.3-2.9,32.5-7.5,48.1-13.6c15.5-6.1,30.5-13.8,44.4-22.8c14.1-9.1,27.3-19.6,39-31.3c11.9-11.8,22.7-24.9,32.1-39.2
						c9.2-14,17.1-29.1,23.4-44.7c6.3-15.7,11-32,14.1-48.5c2.2-12.2,3.6-24.6,4-36.9h0.4v-16.8H331.8z M312.2-717.2
						c-0.1,0.8-0.3,1.6-0.4,2.4c-2.8,15.4-7.3,30.7-13.2,45.3c-5.9,14.7-13.2,28.7-21.9,41.8c-8.7,13.3-18.8,25.5-29.9,36.5
						c-11,10.8-23.2,20.6-36.4,29.2c-13,8.4-27,15.6-41.6,21.3c-14.5,5.7-29.7,10-44.9,12.8c-12.1,2.2-24.3,3.4-36.4,3.6v-192.9
						H312.2z M315.4-748.7c-0.2,4.9-0.5,9.8-1,14.7H87.6v-14.7H315.4z"/>
					<path class="st2" d="M244.4-757.8l0.1,241.2c-12.1-0.2-24.4-1.4-36.5-3.6c-15.3-2.7-30.4-7-44.9-12.8
						c-14.5-5.7-28.5-12.9-41.6-21.3c-13.2-8.5-25.4-18.3-36.4-29.2c-11.1-11-21.2-23.3-29.9-36.5c-8.6-13.1-16-27.2-21.9-41.8
						c-5.9-14.6-10.3-29.9-13.2-45.3c-2.9-15.6-4.1-31.4-3.8-47l0.1-3.4l-16.4-0.4l-0.1,3.4c-0.4,16.7,1,33.7,4,50.4
						c3,16.5,7.8,32.8,14.1,48.5c6.3,15.7,14.2,30.7,23.4,44.7c9.4,14.2,20.1,27.4,32.1,39.2c11.8,11.6,24.9,22.1,39,31.3
						c13.9,9,28.9,16.7,44.4,22.8c15.5,6.1,31.7,10.7,48.1,13.6c13,2.3,26.3,3.6,39.4,3.8v0.2h16.8v-257.8H244.4z"/>
					<path class="st2" d="M314-568.9L314-568.9c-2.7-16.3-7.1-32.5-13.1-48.2c-6-15.5-13.5-30.5-22.5-44.6
						c-9-14.1-19.3-27.3-30.8-39.3c-10-10.5-21-20-32.5-28.5c-1.8-1.3-3.7-2.6-5.6-3.9l-2.9,2.2l-9.1,9.4l2.8,1.9
						c12.7,8.7,24.7,18.9,35.5,30.2c10.7,11.2,20.4,23.6,28.8,36.8c8.4,13.2,15.5,27.2,21,41.7c5.6,14.6,9.8,29.8,12.3,45
						c2.5,15.4,3.4,31.2,2.7,47.1c-0.2,5-0.6,10.1-1.2,15.2l-0.4,3.8h16.5l0.3-3c0.5-5.1,0.9-10.2,1.2-15.2
						C317.6-535.4,316.7-552.4,314-568.9z"/>
				</g>
				<polygon class="st2" points="113.7,-693.6 211.8,-791.8 199.9,-803.7 101.8,-705.5 				"/>
			</g>
		</g>
		<g>
			<g class="st1">
				<g>
					<path class="st2" d="M742.2-515.5l0-0.1l-4.6,0.1H481.1v257.8h16.8v-0.2c13.1-0.2,26.3-1.5,39.3-3.8
						c16.3-2.9,32.5-7.5,48.1-13.6c15.5-6.1,30.5-13.8,44.4-22.8c14.1-9.1,27.3-19.6,39-31.3c11.9-11.8,22.7-24.9,32.1-39.2
						c9.2-14,17.1-29.1,23.4-44.7c6.3-15.7,11-32,14.1-48.5c2.2-12.2,3.6-24.6,4-36.9h0.4v-16.8H742.2z M722.5-467.2
						c-0.1,0.8-0.3,1.6-0.4,2.4c-2.8,15.4-7.3,30.7-13.2,45.3c-5.9,14.7-13.2,28.7-21.9,41.8c-8.7,13.3-18.8,25.5-29.9,36.5
						c-11,10.8-23.2,20.6-36.4,29.2c-13,8.4-27,15.6-41.6,21.3c-14.5,5.7-29.7,10-44.9,12.8c-12.1,2.2-24.3,3.4-36.4,3.6v-192.9
						H722.5z M725.8-498.7c-0.2,4.9-0.5,9.8-1,14.7H497.9v-14.7H725.8z"/>
					<path class="st2" d="M654.8-507.8l0.1,241.2c-12.1-0.2-24.4-1.4-36.5-3.6c-15.3-2.7-30.4-7-44.9-12.8
						c-14.5-5.7-28.5-12.9-41.6-21.3c-13.2-8.5-25.4-18.3-36.4-29.2c-11.1-11-21.2-23.3-29.9-36.5c-8.6-13.1-16-27.2-21.9-41.8
						c-5.9-14.6-10.3-29.9-13.2-45.3c-2.9-15.6-4.1-31.4-3.8-47l0.1-3.4l-16.4-0.4l-0.1,3.4c-0.4,16.7,1,33.7,4,50.4
						c3,16.5,7.8,32.8,14.1,48.5c6.3,15.7,14.2,30.7,23.4,44.7c9.4,14.2,20.1,27.4,32.1,39.2c11.8,11.6,24.9,22.1,39,31.3
						c13.9,9,28.9,16.7,44.4,22.8c15.5,6.1,31.7,10.7,48.1,13.6c13,2.3,26.3,3.6,39.4,3.8v0.2h16.8v-257.8H654.8z"/>
					<path class="st2" d="M724.3-318.9L724.3-318.9c-2.7-16.3-7.1-32.5-13.1-48.2c-6-15.5-13.5-30.5-22.5-44.6
						c-9-14.1-19.3-27.3-30.8-39.3c-10-10.5-21-20-32.5-28.5c-1.8-1.3-3.7-2.6-5.6-3.9l-2.9,2.2l-9.1,9.4l2.8,1.9
						c12.7,8.7,24.7,18.9,35.5,30.2c10.7,11.2,20.4,23.6,28.8,36.8c8.4,13.2,15.5,27.2,21,41.7c5.6,14.6,9.8,29.8,12.3,45
						c2.5,15.4,3.4,31.2,2.7,47.1c-0.2,5-0.6,10.1-1.2,15.2l-0.4,3.8h16.5l0.3-3c0.5-5.1,0.9-10.2,1.2-15.2
						C727.9-285.4,727-302.4,724.3-318.9z"/>
				</g>
				<polygon class="st2" points="524,-443.6 622.1,-541.8 610.2,-553.7 512.1,-455.5 				"/>
			</g>
			<path class="st2" d="M211-594.5c1.9,0,1.9-3,0-3C209-597.5,209-594.5,211-594.5L211-594.5z"/>
			<path class="st2" d="M298-640.5c1.9,0,1.9-3,0-3C296-643.5,296-640.5,298-640.5L298-640.5z"/>
		</g>
		<g>
			<g class="st1">
				<g>
					<path class="st2" d="M1152.5-765.5l0-0.1l-4.6,0.1H891.4v257.8h16.8v-0.2c13.1-0.2,26.3-1.5,39.3-3.8
						c16.3-2.9,32.5-7.5,48.1-13.6c15.5-6.1,30.5-13.8,44.4-22.8c14.1-9.1,27.3-19.6,39-31.3c11.9-11.8,22.7-24.9,32.1-39.2
						c9.2-14,17.1-29.1,23.4-44.7c6.3-15.7,11-32,14.1-48.5c2.2-12.2,3.6-24.6,4-36.9h0.4v-16.8H1152.5z M1132.8-717.2
						c-0.1,0.8-0.3,1.6-0.4,2.4c-2.8,15.4-7.3,30.7-13.2,45.3c-5.9,14.7-13.2,28.7-21.9,41.8c-8.7,13.3-18.8,25.5-29.9,36.5
						c-11,10.8-23.2,20.6-36.4,29.2c-13,8.4-27,15.6-41.6,21.3c-14.5,5.7-29.7,10-44.9,12.8c-12.1,2.2-24.3,3.4-36.4,3.6v-192.9
						H1132.8z M1136.1-748.7c-0.2,4.9-0.5,9.8-1,14.7H908.2v-14.7H1136.1z"/>
					<path class="st2" d="M1065.1-757.8l0.1,241.2c-12.1-0.2-24.4-1.4-36.5-3.6c-15.3-2.7-30.4-7-44.9-12.8
						c-14.5-5.7-28.5-12.9-41.6-21.3c-13.2-8.5-25.4-18.3-36.4-29.2c-11.1-11-21.2-23.3-29.9-36.5c-8.6-13.1-16-27.2-21.9-41.8
						c-5.9-14.6-10.3-29.9-13.2-45.3c-2.9-15.6-4.1-31.4-3.8-47l0.1-3.4l-16.4-0.4l-0.1,3.4c-0.4,16.7,1,33.7,4,50.4
						c3,16.5,7.8,32.8,14.1,48.5c6.3,15.7,14.2,30.7,23.4,44.7c9.4,14.2,20.1,27.4,32.1,39.2c11.8,11.6,24.9,22.1,39,31.3
						c13.9,9,28.9,16.7,44.4,22.8c15.5,6.1,31.7,10.7,48.1,13.6c13,2.3,26.3,3.6,39.4,3.8v0.2h16.8v-257.8H1065.1z"/>
				</g>
			</g>
		</g>
		<g>
			<g class="st1">
				<g>
					<path class="st2" d="M331.8-265.5l0-0.1l-4.6,0.1H70.7V-7.8h16.8v-0.2c13.1-0.2,26.3-1.5,39.3-3.8c16.3-2.9,32.5-7.5,48.1-13.6
						c15.5-6.1,30.5-13.8,44.4-22.8c14.1-9.1,27.3-19.6,39-31.3c11.9-11.8,22.7-24.9,32.1-39.2c9.2-14,17.1-29.1,23.4-44.7
						c6.3-15.7,11-32,14.1-48.5c2.2-12.2,3.6-24.6,4-36.9h0.4v-16.8H331.8z M312.2-217.2c-0.1,0.8-0.3,1.6-0.4,2.4
						c-2.8,15.4-7.3,30.7-13.2,45.3c-5.9,14.7-13.2,28.7-21.9,41.8c-8.7,13.3-18.8,25.5-29.9,36.5c-11,10.8-23.2,20.6-36.4,29.2
						c-13,8.4-27,15.6-41.6,21.3c-14.5,5.7-29.7,10-44.9,12.8c-12.1,2.2-24.3,3.4-36.4,3.6v-192.9H312.2z M315.4-248.7
						c-0.2,4.9-0.5,9.8-1,14.7H87.6v-14.7H315.4z"/>
					<path class="st2" d="M244.4-257.8l0.1,241.2c-12.1-0.2-24.4-1.4-36.5-3.6c-15.3-2.7-30.4-7-44.9-12.8
						c-14.5-5.7-28.5-12.9-41.6-21.3c-13.2-8.5-25.4-18.3-36.4-29.2c-11.1-11-21.2-23.3-29.9-36.5c-8.6-13.1-16-27.2-21.9-41.8
						c-5.9-14.6-10.3-29.9-13.2-45.3c-2.9-15.6-4.1-31.4-3.8-47l0.1-3.4l-16.4-0.4l-0.1,3.4c-0.4,16.7,1,33.7,4,50.4
						c3,16.5,7.8,32.8,14.1,48.5c6.3,15.7,14.2,30.7,23.4,44.7c9.4,14.2,20.1,27.4,32.1,39.2c11.8,11.6,24.9,22.1,39,31.3
						c13.9,9,28.9,16.7,44.4,22.8c15.5,6.1,31.7,10.7,48.1,13.6c13,2.3,26.3,3.6,39.4,3.8V0h16.8v-257.8H244.4z"/>
					<path class="st2" d="M314-68.9L314-68.9c-2.7-16.3-7.1-32.5-13.1-48.2c-6-15.5-13.5-30.5-22.5-44.6
						c-9-14.1-19.3-27.3-30.8-39.3c-10-10.5-21-20-32.5-28.5c-1.8-1.3-3.7-2.6-5.6-3.9l-2.9,2.2l-9.1,9.4l2.8,1.9
						c12.7,8.7,24.7,18.9,35.5,30.2c10.7,11.2,20.4,23.6,28.8,36.8c8.4,13.2,15.5,27.2,21,41.7c5.6,14.6,9.8,29.8,12.3,45
						c2.5,15.4,3.4,31.2,2.7,47.1c-0.2,5-0.6,10.1-1.2,15.2l-0.4,3.8h16.5l0.3-3c0.5-5.1,0.9-10.2,1.2-15.2
						C317.6-35.4,316.7-52.4,314-68.9z"/>
				</g>
				<polygon class="st2" points="113.7,-193.6 211.8,-291.8 199.9,-303.7 101.8,-205.5 				"/>
			</g>
		</g>
		<g>
			<g class="st1">
				<g>
					<path class="st2" d="M1152.5-265.5l0-0.1l-4.6,0.1H891.4V-7.8h16.8v-0.2c13.1-0.2,26.3-1.5,39.3-3.8
						c16.3-2.9,32.5-7.5,48.1-13.6c15.5-6.1,30.5-13.8,44.4-22.8c14.1-9.1,27.3-19.6,39-31.3c11.9-11.8,22.7-24.9,32.1-39.2
						c9.2-14,17.1-29.1,23.4-44.7c6.3-15.7,11-32,14.1-48.5c2.2-12.2,3.6-24.6,4-36.9h0.4v-16.8H1152.5z M1132.8-217.2
						c-0.1,0.8-0.3,1.6-0.4,2.4c-2.8,15.4-7.3,30.7-13.2,45.3c-5.9,14.7-13.2,28.7-21.9,41.8c-8.7,13.3-18.8,25.5-29.9,36.5
						c-11,10.8-23.2,20.6-36.4,29.2c-13,8.4-27,15.6-41.6,21.3c-14.5,5.7-29.7,10-44.9,12.8c-12.1,2.2-24.3,3.4-36.4,3.6v-192.9
						H1132.8z M1136.1-248.7c-0.2,4.9-0.5,9.8-1,14.7H908.2v-14.7H1136.1z"/>
					<path class="st2" d="M1065.1-257.8l0.1,241.2c-12.1-0.2-24.4-1.4-36.5-3.6c-15.3-2.7-30.4-7-44.9-12.8
						c-14.5-5.7-28.5-12.9-41.6-21.3c-13.2-8.5-25.4-18.3-36.4-29.2c-11.1-11-21.2-23.3-29.9-36.5c-8.6-13.1-16-27.2-21.9-41.8
						c-5.9-14.6-10.3-29.9-13.2-45.3c-2.9-15.6-4.1-31.4-3.8-47l0.1-3.4l-16.4-0.4l-0.1,3.4c-0.4,16.7,1,33.7,4,50.4
						c3,16.5,7.8,32.8,14.1,48.5c6.3,15.7,14.2,30.7,23.4,44.7c9.4,14.2,20.1,27.4,32.1,39.2c11.8,11.6,24.9,22.1,39,31.3
						c13.9,9,28.9,16.7,44.4,22.8c15.5,6.1,31.7,10.7,48.1,13.6c13,2.3,26.3,3.6,39.4,3.8V0h16.8v-257.8H1065.1z"/>
				</g>
			</g>
			<path class="st2" d="M621.3-344.5c1.9,0,1.9-3,0-3C619.4-347.5,619.4-344.5,621.3-344.5L621.3-344.5z"/>
			<path class="st2" d="M708.3-390.5c1.9,0,1.9-3,0-3C706.4-393.5,706.4-390.5,708.3-390.5L708.3-390.5z"/>
		</g>
	</g>
</pattern>
<rect class="st3" width="1374" height="780"/>
</svg>
