<svg xmlns="http://www.w3.org/2000/svg" width="1028.09" height="381.582" viewBox="0 0 1028.09 381.582">
  <path id="Path_1" data-name="Path 1" d="M1150,455.646A132.244,132.244,0,0,1,1017.756,587.89H318.582c-73.037,0-4-59.208-4-132.244V338.561c0-73.036-83.342-132.069-10.3-132.069l713.478-.175A132.244,132.244,0,0,1,1150,338.561Z" transform="translate(-121.911 -206.308)"/>
  <g id="Path_2" data-name="Path 2" transform="translate(-121.911 -206.308)" fill="#f6ce6e" stroke-miterlimit="10">
    <path d="M 312.7383728027344 576.3895263671875 L 310.931396484375 576.380615234375 C 263.0437927246094 575.9083862304688 218.2064361572266 556.815673828125 184.6787414550781 522.6195678710938 C 151.1510314941406 488.4234008789062 132.9467926025391 443.2175598144531 133.4194488525391 395.3294982910156 C 134.3847351074219 297.4435119628906 214.7928466796875 217.8075103759766 312.6626281738281 217.8075103759766 L 314.4696044921875 217.8163909912109 C 362.357666015625 218.2890930175781 407.1952209472656 237.3819274902344 440.7226867675781 271.5778198242188 C 474.2501525878906 305.773681640625 492.4541931152344 350.9794006347656 491.9815673828125 398.8674621582031 C 491.0162658691406 496.7535095214844 410.608154296875 576.3895263671875 312.7383728027344 576.3895263671875 Z" stroke="none"/>
    <path d="M 312.66259765625 229.3074951171875 C 221.0717163085938 229.3074951171875 145.8221740722656 303.8355102539062 144.9188232421875 395.4429626464844 C 144.4765014648438 440.2593994140625 161.5130615234375 482.5657348632812 192.8902893066406 514.568359375 C 224.2673950195312 546.571044921875 266.2288208007812 564.439208984375 311.0444030761719 564.881103515625 L 312.7384033203125 564.889404296875 C 404.3291625976562 564.889404296875 479.5787353515625 490.3613891601562 480.4820556640625 398.7539672851562 C 480.9243774414062 353.9374084472656 463.887939453125 311.6312866210938 432.5110473632812 279.6288452148438 C 401.1341552734375 247.6264038085938 359.1724853515625 229.7581787109375 314.3565979003906 229.3158569335938 L 312.66259765625 229.3074951171875 M 312.6626281738281 206.3074951171875 C 313.3042907714844 206.3074951171875 313.93994140625 206.3106079101562 314.5830688476562 206.3169555664062 C 419.9490356445312 207.35693359375 504.5209350585938 293.6149597167969 503.48095703125 398.98095703125 C 502.4483032226562 503.7028503417969 417.2269592285156 587.889404296875 312.7383422851562 587.889404296875 C 312.0966796875 587.889404296875 311.4610595703125 587.8862915039062 310.8179321289062 587.8799438476562 C 205.4529418945312 586.8409423828125 120.8799438476562 500.5819702148438 121.9199523925781 395.2159423828125 C 122.9526062011719 290.4930725097656 208.1738891601562 206.3074951171875 312.6626281738281 206.3074951171875 Z" stroke="none" fill="#070606"/>
  </g>
  <g id="Group_2" data-name="Group 2" transform="translate(-121.911 -206.308)">
    <path id="Path_3" data-name="Path 3" d="M199.757,527.874l-13.466-74.11,7.2-47.753,7.034-31.316,9.934-22.321,7.649-17.858,8.323-10.379L240,311.566l12.021-6.607,12.791-8.84,11.289-8.108,10.541-8.116,25.464-5.727,20.247-7.273,16.394,4.646L367.37,277.7l14.255-5.837,21.106-18.473,14.2.14-3.151,16.408,2.035,20.944L426.1,308.172s5.875,10.52,5.853,12.761,2.656,33.654,2.656,33.654L439.435,358l-1.653,16.05,4.431,5.274,4.077,3.4.482,26.906-7.59,11.881L438.9,449.9l.006,75.1,4,11.248-4.247,13.782-6.851,12.636-7.138,4.039-4.546,6.307-13.5,4.724-15.7.593-4.428-5.647-5.3,6.671-7.772-7.548L363.99,544.44l4.938-8.171-3.977-13.49-11-21.032L343.7,479.976l-5.186-4.536-13.756-6.86-10.41-5.334-4.993,13.775-1.753,26.136,8.4,19.139,3.845,7.947,2.886,4.2s-60.468,19.083-116.241,10.5" fill="#d7100c"/>
    <path id="Path_4" data-name="Path 4" d="M363.218,376.673l-4,8.181s-10.811,35.387-11.876,48.641c0,0-.47-9.159,1.094-16.241,0,0-12.348,20.8-1.08,33.8s20.225,13.837,24.547,30.318a86.9,86.9,0,0,1,1.911,33.459s5.543-31.7-1.687-56.248" fill="#830001"/>
    <path id="Path_5" data-name="Path 5" d="M400.507,497.724l-5.437,20.869-12.42,28.086,8.309,28.851,12.505,1.059L392.889,550.33l8.194-16.36,2.293-24.075-2.868-12.171" fill="#830001"/>
    <path id="Path_6" data-name="Path 6" d="M371.506,540.03l8.988,35.771-3.727-.971-6.794-12.024-4.361-12.372.065-6.726,5.828-3.678" fill="#830001"/>
    <path id="Path_7" data-name="Path 7" d="M401.005,541.815l17.047-4.688L421,541.639l3.525,2.465,1.96-9.321-1.5-18.51-1.693-36.632-2.024-22.065-1.963-9.358-2.729-7.5-2.065-17.768-4.734,25.361.687,25.038,1.935,12.163-.443,25.963-4.778,10.975" fill="#830001"/>
    <path id="Path_8" data-name="Path 8" d="M367.853,354.925l3.406,39.761.578,17.194s8.461,13.347,11,21.218,7.69,34.823,5.12,49.182c0,0,8.73-32.793,7.006-47.381S389.52,418.4,389.52,418.4s-4.4-8.075-4.585-8.638-3.473-7.694-3.282-8.251-1.328-16.827-1.328-16.827l1.189-6.9-13.661-22.863" fill="#830001"/>
    <path id="Path_9" data-name="Path 9" d="M413.921,349.9l-1.263,33.428,15.682,57.88,19.995-38.474-10.258-39.518-12.271-43.836-24.97-6.411Z" fill="#830001"/>
    <path id="Path_10" data-name="Path 10" d="M465.143,288.473a89.424,89.424,0,0,1-7.863-7.361l-2.9.812-19.456,2.8-8.333,11.5L441.188,312.8a44.32,44.32,0,0,0,5.63-2.56c.941-.738,8.282-6.27,8.282-6.27l5.861-7.041,4.674-7.892C465.47,288.852,465.306,288.663,465.143,288.473Z" fill="#830001"/>
    <path id="Path_11" data-name="Path 11" d="M255.156,517.586s34.8-5.636,41.558-27.612c0,0,.36,20.366-7.026,30.567,0,0,10.124-3.636,17.2-39.434s3.173-37.518,3.173-37.518l-5.479,6.11-8.88,10.188-7.777,11.88-4.821,15.27-13.773,13.689-14.177,16.86" fill="#830001"/>
    <path id="Path_12" data-name="Path 12" d="M211.5,436.077s4.576-28.35,20.484-50.237a187.454,187.454,0,0,0-7.522,42.892s7.358-26.268,15.109-35.532c0,0-5.2,15.269-4.572,27.978,0,0,7.028-30.756,14.594-40.207,0,0-2.687,7.258-2.618,19.215,0,0,10.218-51.087,44.758-67.933,0,0-15.519,1.342-31.017,19.5,0,0,17.072-26.173,47.247-36.149,0,0-25.8,1.8-45.02,18.8,0,0,31.129-30.891,55.64-34.759,0,0-34.553-.714-58.492,20.907S213.515,383.229,211.5,436.077" fill="#830001"/>
    <path id="Path_13" data-name="Path 13" d="M335.471,348.751l-13.818,37.226-3.236,6.133-2.68,6.512,8.246,54.071,2.34-9.878s2.316,11.418,10.69,14.676,20.465,8.61,24.656,19.3a133.019,133.019,0,0,1,7.358,30.523s.525-34.181-16.915-46.5-16.814-18.847-16.7-30.055-.078-29.892-.078-29.892l2.5-7.635-1.194-30.461-5.511,9.472Z" fill="#f6ce6e"/>
    <path id="Path_14" data-name="Path 14" d="M211.3,493.614s-4.711-52.727,4.448-91.121,17.369-56.246,38.677-76.4S292.4,302,292.4,302s14.714-14.426,51.194-19.671c0,0-35.808-6.144-78.681,22.2-42.126,27.852-50.914,64.786-57.693,91.342C200.424,422.518,211.3,493.614,211.3,493.614Z" fill="#f6ce6e"/>
    <path id="Path_15" data-name="Path 15" d="M397.162,552.8a43.743,43.743,0,0,1,6.216-5.356,26.892,26.892,0,0,0,2.165,7.868c1.65,3.193,1.635,4.688,1.635,4.688s-.32,13.448.776,16.072C407.954,576.071,399.883,561.048,397.162,552.8Z" fill="#f6ce6e"/>
    <path id="Path_16" data-name="Path 16" d="M433.6,532.8l-2.664,4.831L423.5,553.434l9.43-9.062,3.045-5.761Z" fill="#f6ce6e"/>
    <path id="Path_17" data-name="Path 17" d="M415.987,386.722,414.5,423.883l3.908,20.4,8.5,9.611,4.2,66.173,2.322-64.987,3.309-13.419,1.913-42.388L431.7,365.767l-5.314,27.409,1.955,48.03Z" fill="#f6ce6e"/>
    <path id="Path_18" data-name="Path 18" d="M366.425,335.605s13.553,8.54,18.541,14.194,9.568,14.852,10.659,17.852c0,0,.788-4.1-3.237-12.734,0,0,8.495,9.984,10.663,17.478,0,0-5.288-32-11.39-38.409l-8.619,2.531A38.211,38.211,0,0,0,366.425,335.605Z" fill="#f6ce6e"/>
    <path id="Path_19" data-name="Path 19" d="M409.54,263.921s-4,27.048-12.536,39.668A78.092,78.092,0,0,1,377.943,323.2s23.065-8.213,28.127-29.613C409.774,277.935,410.2,272.707,409.54,263.921Z" fill="#f6ce6e"/>
    <path id="Path_20" data-name="Path 20" d="M364.824,346.425l3.03,8.5,7.158,19.248h0l2.786,8,1.541,26.792,6.485,5.482,6.2,15.566,2.664,14.037,3.795-43.863L374.4,360.157Z"/>
    <path id="Path_21" data-name="Path 21" d="M327.235,350.35s-12.178,22.484-17.142,33.271a238.012,238.012,0,0,0-8.626,22.333s2.5,30.476.01,36.8-6.1,12.458-10.8,15.4-5.705,10.219-8.219,18.787-19,32.319-27.685,41.574c0,0,30.017-31.65,33.829-39.457s5.913-12.272,10.244-15.779,10.157-7,10.4-12.227c0,0,.272,10.277-3.825,27.8s2.057,37.757,17.386,55.657c0,0-16-25.94-11.679-47.006l4.317-21.068s2.93,6.007,17.46,10.259,21.581,8.994,25.424,17.065,8.043,18.014,8.043,18.014-2.162-27.11-20.379-36.256l-18.217-9.147s-6.672-5.484-9.244-9.805c0,0-2.793-19.83-4.9-33.864s-4.068-23.2-3.106-25.995S322.057,363.938,327.235,350.35Z"/>
    <path id="Path_22" data-name="Path 22" d="M397.711,370.849l7.512,33.887-2.546,11.931.2,11.148s2.307,18.581,2.282,21.2c0,0,2.12-31.863,2.7-34.285s2.239-12.371,1.542-17.421S397.711,370.849,397.711,370.849Z"/>
    <path id="Path_23" data-name="Path 23" d="M381.831,383.582l-.128,6.6s9.86,29.364,11.335,31.433l1.32-20.163Z" fill="#fff"/>
    <path id="Path_24" data-name="Path 24" d="M414.512,422.575l.693,24.48L418.5,454s4.483,57.023,6.656,63.956c0,0,.668-29.884-.169-39.793-.561-6.643.33-5.512-2.881-29.919l-3.143-3.207Z"/>
    <path id="Path_25" data-name="Path 25" d="M363.031,376.671c.192-.559-2.724,67.787-2.566,70.591L378.4,465.934l4.7,34.793.548-36.611-11.765-19.358Z"/>
    <path id="Path_26" data-name="Path 26" d="M400.328,496.975l1.45,23.365-10.915,26.98-1.88,1.289s9.294,23.63,11.691,26.831,6.741-1.615,6.741-1.615l-10.8-22.9,7.734-7.582,10.877-4.191,4.247,5.087-.058,5.79,3.032-4.265,1.884-1.664-5.329-9.019-7.655-.45-8.814,3.462,5.971-18.247Z"/>
    <path id="Path_27" data-name="Path 27" d="M414.624,543.818l-11.855,8.663,4.964,8.083,4.05,6.2,3.386-2.4L413.39,555.2l-2.781-2.082Z"/>
    <path id="Path_28" data-name="Path 28" d="M375,526.614l8.335,45.105,7.622,3.81L379.43,532.262Z"/>
    <path id="Path_29" data-name="Path 29" d="M338.686,477.311l25.45,52.372,1.058,6.363-5.661,5.734s5.553,24.155,12,33.371,12.447,7.037,12.447,7.037l2.661-4.644,3.7,4.146s27.295-1.973,31.446-6.041a46.042,46.042,0,0,0,7.2-9.831l4.5-1.263,14.066-24.522-6.508-21.922s1-26.143.979-42.583-3.356-76.254-3.356-76.254-2.658,61.063-2.839,79.369-.988,43.332-.988,43.332l5.079,15.368-9.143,17.843-1.727,4.655-5.441,2.375s-4.385,8.924-6.262,9.839-18.9,3.174-18.9,3.174l-10.813-2.345-2.589-2.642-4.53,4.624a25.619,25.619,0,0,1-6.081-8.465c-1.822-4.687-7.814-22.122-7.814-22.122l4.9-4.249-2.265-16.462L356.03,499.152l-9.5-21.764Z"/>
    <path id="Path_30" data-name="Path 30" d="M422.236,245.547c-3.728,2.889-13.05,10.027-23.155,18.084-11.11,8.857-19.18,12.514-23.009,22s-1.942,26.321-1.942,26.321c1.837-15.674,9.467-31.664,18.487-36.993s22.792-19.018,22.792-19.018c-4.176,6.685-3.6,23.691-7.69,41.024s-27.575,30.365-27.575,30.365A71.872,71.872,0,0,0,404,314.306c10.739-9.235,12.318-36.68,13.174-47.7.532-6.847,4.251-14.672,6.988-19.614Q423.176,246.294,422.236,245.547Z"/>
    <path id="Path_31" data-name="Path 31" d="M457.875,281.724q-2.266-2.34-4.392-4.809c-2.727.293-5.437.611-8.027,1-12.909,1.927-17.662,10.287-17.662,10.287s-.49,11.764,1.983,7.3,9.076-11.119,18.056-12.338C451.119,282.721,454.68,282.2,457.875,281.724Z"/>
    <path id="Path_32" data-name="Path 32" d="M465.143,288.473c-.422-.349-.832-.708-1.247-1.064-.993,2.16-2.266,4.846-4.231,8.391-4.946,8.918-16.372,11.981-16.372,11.981l1.234,7.486c8.9-4.183,17.866-15.593,22.392-24.758Q466.021,289.5,465.143,288.473Z"/>
    <path id="Path_33" data-name="Path 33" d="M395.547,318.706l16.1,34.72s-2.492,6.514-1.978,11.189c.91,8.273,2.99,18.9,2.99,18.9s.92-17.551,3-20.52,3.07-8.189,3.07-8.189l-10.37-28.125-6.241-11.271"/>
    <path id="Path_34" data-name="Path 34" d="M436.527,349.748l-.1,28.955s5.566,3.977,6.122,4.357,2.175,25.8,2.175,25.8l-5.87,7.976-.109,11.02,12.509-18.183-1.4-28.784-8.344-6.434.522-40.221Z"/>
    <path id="Path_35" data-name="Path 35" d="M211.5,436.077s5.561-63.567,33.453-96.066c20.033-23.34,49.705-39.113,76.707-49.309,0,0-54.629,8.054-83.065,49.994C210.273,382.466,211.675,418.144,211.5,436.077Z"/>
    <path id="Path_36" data-name="Path 36" d="M410.643,297.185l4.141-28.48,32.448,43.91-9.806,47.105L432.925,374l-6.437,21.358-6.3-68.437-17.81-12.63Z"/>
    <g id="Group_1" data-name="Group 1">
      <path id="Path_37" data-name="Path 37" d="M428.355,249.786l-60.237-3.9-12.052,19.127-.42-17.257,31.564-18.122-62.287,14.331-9.2,23.065-3.685-16.84,22.248-20.7-63.8,28.888s-.864,13.788-1.656,26.153L258.79,269.222l12.241-28.774-46.341,51.6,6.992,23.7-14.131-7.079,3.885-40.313L190.687,330.2l15.552,22.4-18.979-3.378-4.593-39.4-12.726,65.509,20.829,19.9-21.909,1.135-7.254-47.271-4.4,67.084,21.815,15.731-18.036,5.228-16.73-33.665,9.917,67.848,26.329,8.55-12.078,11.145-31.089-29.7,35.1,65.481,34.225,18.224c-3.614-17.507-22.729-117.281-.716-170.458,25.262-61.026,58.572-79.378,101.563-94.4,26.589-9.289,53.583-2,70.191,5.274,2.134-3.392,4.863-6.623,8.033-8.434.486-.463.99-.912,1.5-1.358l1.277-.162,4.48-4.437a53.28,53.28,0,0,1,5.879-3.922c2.239-1.252,2.4-2.534,4.464-4.448,6.133-5.7,19.734-8.92,28.753-10.587C430.832,251.325,429.587,250.561,428.355,249.786Z"/>
    </g>
  </g>
  <path id="Path_38" data-name="Path 38" d="M322.063,533.689S339.2,563.5,366.079,566.255c18.743,1.922-42.993,15.269-42.993,15.269l-81.036-16.74-41.1-25.067" transform="translate(-121.911 -206.308)" fill="#d7100c"/>
  <path id="Path_39" data-name="Path 39" d="M314.583,206.317c-105.366-1.039-191.624,83.533-192.663,188.9s83.533,191.625,188.9,192.664a190.4,190.4,0,0,0,68.454-11.94,3.719,3.719,0,0,1-1.723-.952c-3.176-3.092-7.46-8.557-8.228-13.731a174.225,174.225,0,1,1,68.353-43.666c.856,4.1,1.7,8.2,2.223,12.354a83.7,83.7,0,0,1,1.148,8.3,190.261,190.261,0,0,0,62.436-139.269C504.521,293.615,419.949,207.357,314.583,206.317Z" transform="translate(-121.911 -206.308)"/>
  <path id="Path_40" data-name="Path 40" d="M369.029,564.691c0-.051,1.383.328,1.382.279-.59.163-13.74-6.432-14.33-6.274a93.681,93.681,0,0,1-17.362-11.8q-2.013-1.7-3.925-3.486h0l-.511-.478a110.514,110.514,0,0,1-7.9-8.252c-.032-.036-.062-.074-.093-.11q-.651-.758-1.275-1.513l-.167-.2c-.4-.485-.786-.967-1.167-1.451l-.162-.205q-.6-.762-1.169-1.521l-.076-.1q-1.234-1.648-2.327-3.267l-.065-.1q-.483-.717-.933-1.424c-.087-.138-.17-.273-.256-.41q-.345-.549-.673-1.1c-.1-.17-.2-.338-.3-.507-.193-.33-.381-.655-.563-.979-.1-.181-.2-.36-.3-.538q-.256-.473-.5-.938c-.09-.174-.182-.351-.27-.523-.164-.328-.317-.65-.469-.972-.07-.147-.144-.3-.21-.443-.211-.463-.412-.92-.6-1.37-3.128-8.687-5.5-19.29-3.621-28.928.439-2.26.83-4.263,1.18-6.065a38.449,38.449,0,0,1-7.794,2.4,49.994,49.994,0,0,0-.2,8.786,57.3,57.3,0,0,0,2.27,12.537c1.412,5.821,5.932,19.62,20.443,37.442q1.53,1.878,3.207,3.815a70.141,70.141,0,0,0,16.21,13.965c-.855.176,14.8,8.515,13.947,8.676,4.139,2.931-8.106-2.542-3.734,0C357.615,566.032,369.229,568.633,369.029,564.691Z" transform="translate(-121.911 -206.308)"/>
  <g id="Group_4" data-name="Group 4" transform="translate(-121.911 -206.308)">
    <g id="Group_3" data-name="Group 3">
      <path id="Path_41" data-name="Path 41" d="M551.627,339.272H524.4v77.995h26.574c27.87,0,26.035-27.438,26.035-39.43C577.013,353.532,573.016,339.272,551.627,339.272Zm-10.911,11.991h8.426c11.343,0,11.343,12.639,11.343,27.006,0,19.552-1.945,27.007-11.883,27.007h-7.886" fill="#fff"/>
      <path id="Path_42" data-name="Path 42" d="M627.234,339.272H605.739l-21.605,77.995h16.1l4.428-17.286h22.253l4.321,17.286h17.176ZM607.9,387.991l7.455-33.7h.216l7.887,33.7Z" fill="#fff"/>
      <path id="Path_43" data-name="Path 43" d="M703.816,394.365c0-14.043-10.586-14.907-14.15-15.34v-.215c10.588-1.729,14.477-9.182,14.477-19.121,0-13.288-7.131-20.417-18.258-20.417H655.746v77.995h16.313v-32.3h4.212c12.53,0,11.668,7.885,11.668,17.176,0,5.077-.433,10.37,1.727,15.124h15.986C704.143,414.025,703.816,399.335,703.816,394.365ZM679.3,372.976h-7.238V351.263H679.3c5.183,0,8.316,2.808,8.316,10.263C687.613,366.495,685.777,372.976,679.3,372.976Z" fill="#fff"/>
      <path id="Path_44" data-name="Path 44" d="M746.912,374.272l21.82-35H750.8l-19.123,33.379h-.213V339.272H715.152v77.995h16.313V377.3h.213l18.691,39.971h18.363Z" fill="#fff"/>
      <path id="Path_45" data-name="Path 45" d="M835.7,417.267h16.309V339.272H835.7v31.219H817.008V339.272H800.7v77.995h16.31V382.481H835.7Z" fill="#fff"/>
      <path id="Path_46" data-name="Path 46" d="M892.295,418.563c26.9,0,26.9-19.878,26.9-40.294,0-20.633,0-40.292-26.9-40.292s-26.9,19.659-26.9,40.292C865.394,398.685,865.394,418.563,892.295,418.563Zm0-68.921c9.18,0,10.369,8.642,10.369,28.627s-1.189,28.626-10.369,28.626-10.371-8.641-10.371-28.626S883.111,349.642,892.295,349.642Z" fill="#fff"/>
      <path id="Path_47" data-name="Path 47" d="M948.133,384.967h4.213c12.531,0,11.668,7.885,11.668,17.176,0,5.077-.434,10.37,1.728,15.124h15.986c-1.511-3.242-1.835-17.932-1.835-22.9,0-14.043-10.586-14.907-14.151-15.34v-.215c10.586-1.729,14.475-9.182,14.475-19.121,0-13.288-7.129-20.417-18.256-20.417H931.822v77.995h16.311Zm0-33.7h7.238c5.186,0,8.318,2.808,8.318,10.263,0,4.969-1.836,11.45-8.318,11.45h-7.238Z" fill="#fff"/>
      <path id="Path_48" data-name="Path 48" d="M1040.6,395.985c0-24.521-32.84-23.225-32.84-38.025,0-5.4,3.133-8.318,8.426-8.318,6.59,0,7.56,5.943,7.56,11.775h15.881c1.08-16.312-6.808-23.44-22.683-23.44-19.88,0-25.712,9.721-25.712,21.928,0,23.225,32.838,24.09,32.838,38.133,0,5.293-2.7,8.857-8.209,8.857-8.966,0-9.287-6.265-9.287-13.718H990.256c-.863,13.5,2.916,25.386,23.117,25.386C1025.8,418.563,1040.6,416.185,1040.6,395.985Z" fill="#fff"/>
      <path id="Path_49" data-name="Path 49" d="M1068.566,382.481h24.2v-11.99h-24.2V351.263h26.25V339.272h-42.561v77.995h43.424v-11.99h-27.113Z" fill="#fff"/>
    </g>
    <path id="Path_50" data-name="Path 50" d="M530.094,441.84a3.064,3.064,0,0,1,3.4-3.355c2.657,0,3.049,2.4,3.049,4.749h6.406c.436-6.58-2.745-9.456-9.151-9.456-8.016,0-10.369,3.922-10.369,8.846,0,9.368,13.246,9.717,13.246,15.381,0,2.135-1.09,3.573-3.311,3.573-3.617,0-3.748-2.526-3.748-5.533h-6.579c-.349,5.446,1.176,10.239,9.325,10.239,5.01,0,10.979-.959,10.979-9.107C543.34,447.286,530.094,447.81,530.094,441.84Z" fill="#fff"/>
    <path id="Path_51" data-name="Path 51" d="M545.56,439.53h7.32v26.23h6.58V439.53h7.321V434.3H545.56Z" fill="#fff"/>
    <path id="Path_52" data-name="Path 52" d="M583.377,450.337v-.088c4.27-.7,5.839-3.7,5.839-7.712,0-5.36-2.875-8.235-7.363-8.235H569.7v31.459h6.58V452.733h1.7c5.054,0,4.705,3.181,4.705,6.928,0,2.048-.173,4.183.7,6.1h6.45c-.611-1.307-.741-7.233-.741-9.238C589.086,450.859,584.815,450.511,583.377,450.337ZM579.2,447.9h-2.92v-8.758h2.92c2.091,0,3.356,1.132,3.356,4.138C582.551,445.282,581.81,447.9,579.2,447.9Z" fill="#fff"/>
    <path id="Path_53" data-name="Path 53" d="M600.629,451.731h9.759v-4.838h-9.759v-7.755h10.588V434.3H594.049v31.459h17.517v-4.836H600.629Z" fill="#fff"/>
    <path id="Path_54" data-name="Path 54" d="M633.219,456.088h-.086L624.765,434.3h-8.891v31.459h6.146V442.755h.086l8.585,23.006h8.67V434.3h-6.142Z" fill="#fff"/>
    <path id="Path_55" data-name="Path 55" d="M655.742,433.778c-10.762,0-11.156,8.062-11.156,15.993,0,11.938,1.264,16.513,12.332,16.513a59.924,59.924,0,0,0,8.889-1.047V449.291H655.656v4.837h3.572V461.1a10.306,10.306,0,0,1-3.267.61c-3.748,0-4.707-1.743-4.707-11.591,0-6.1,0-11.633,4.1-11.633,3.484,0,3.964,2.571,3.921,5.491h6.534C666.2,437.4,662.193,433.778,655.742,433.778Z" fill="#fff"/>
    <path id="Path_56" data-name="Path 56" d="M669.027,439.53h7.32v26.23h6.58V439.53h7.322V434.3H669.027Z" fill="#fff"/>
    <path id="Path_57" data-name="Path 57" d="M707.631,446.894h-7.537V434.3h-6.58v31.459h6.58V451.731h7.537v14.029h6.58V434.3h-6.58Z" fill="#fff"/>
    <path id="Path_58" data-name="Path 58" d="M735.906,434.3l-8.717,31.459h6.493l1.787-6.971h8.976l1.742,6.971h6.93L744.576,434.3Zm.869,19.65,3.008-13.594h.088l3.18,13.594Z" fill="#fff"/>
    <path id="Path_59" data-name="Path 59" d="M773.592,456.088H773.5L765.139,434.3h-8.891v31.459h6.146V442.755h.086l8.584,23.006h8.672V434.3h-6.144Z" fill="#fff"/>
    <path id="Path_60" data-name="Path 60" d="M796.375,434.3H785.394v31.459h10.721c11.242,0,10.5-11.068,10.5-15.9C806.615,440.054,805,434.3,796.375,434.3Zm-1.219,26.623h-3.181V439.139h3.4c4.576,0,4.576,5.1,4.576,10.892C799.949,457.917,799.166,460.925,795.156,460.925Z" fill="#fff"/>
    <path id="Path_61" data-name="Path 61" d="M833.451,434.3H821.6v31.459h6.58V452.95h4.88c7.711,0,8.756-5.664,8.756-9.236C841.816,437.962,839.463,434.3,833.451,434.3Zm-1.611,13.812h-3.66v-8.975h3.31c2.963,0,3.66,2.178,3.66,4.749C835.15,445.979,833.8,448.114,831.84,448.114Z" fill="#fff"/>
    <path id="Path_62" data-name="Path 62" d="M852.359,451.731h9.76v-4.838h-9.76v-7.755h10.586V434.3H845.779v31.459H863.3v-4.836H852.359Z" fill="#fff"/>
    <path id="Path_63" data-name="Path 63" d="M881.115,450.337v-.088c4.27-.7,5.838-3.7,5.838-7.712,0-5.36-2.877-8.235-7.365-8.235H867.432v31.459h6.578V452.733h1.7c5.053,0,4.7,3.181,4.7,6.928,0,2.048-.174,4.183.7,6.1h6.445c-.607-1.307-.74-7.233-.74-9.238C886.82,450.859,882.551,450.511,881.115,450.337Zm-4.185-2.44h-2.92v-8.758h2.92c2.091,0,3.355,1.132,3.355,4.138C880.285,445.282,879.545,447.9,876.93,447.9Z" fill="#fff"/>
    <path id="Path_64" data-name="Path 64" d="M891.654,465.761h6.58V452.036h9.324V447.2h-9.324v-8.061h9.76V434.3h-16.34Z" fill="#fff"/>
    <path id="Path_65" data-name="Path 65" d="M921.672,433.778c-10.848,0-10.848,7.932-10.848,16.253,0,8.236,0,16.253,10.848,16.253s10.851-8.017,10.851-16.253C932.523,441.71,932.523,433.778,921.672,433.778Zm0,27.8c-3.7,0-4.18-3.486-4.18-11.547s.477-11.546,4.18-11.546,4.185,3.486,4.185,11.546S925.375,461.578,921.672,461.578Z" fill="#fff"/>
    <path id="Path_66" data-name="Path 66" d="M951.3,450.337v-.088c4.267-.7,5.838-3.7,5.838-7.712,0-5.36-2.877-8.235-7.366-8.235H937.617v31.459h6.58V452.733h1.7c5.053,0,4.706,3.181,4.706,6.928,0,2.048-.174,4.183.7,6.1h6.445c-.607-1.307-.74-7.233-.74-9.238C957.006,450.859,952.736,450.511,951.3,450.337Zm-4.186-2.44H944.2v-8.758h2.918c2.094,0,3.358,1.132,3.358,4.138C950.473,445.282,949.73,447.9,947.115,447.9Z" fill="#fff"/>
    <path id="Path_67" data-name="Path 67" d="M977.439,455.7h-.086L972.428,434.3H961.84v31.459h6.406v-24.27h.086l5.752,24.27h6.275l6.055-24.27h.088v24.27h6.406V434.3h-10.24Z" fill="#fff"/>
    <path id="Path_68" data-name="Path 68" d="M1004.58,434.3l-8.713,31.459h6.49l1.788-6.971h8.976l1.742,6.971h6.93l-8.541-31.459Zm.871,19.65,3.006-13.594h.09l3.18,13.594Z" fill="#fff"/>
    <path id="Path_69" data-name="Path 69" d="M1042.268,456.088h-.086l-8.367-21.786h-8.891v31.459h6.145V442.755h.086l8.584,23.006h8.672V434.3h-6.143Z" fill="#fff"/>
    <path id="Path_70" data-name="Path 70" d="M1064.486,461.578c-3.7,0-4.185-3.486-4.185-11.547s.48-11.546,4.185-11.546c1.959,0,2.7,1.569,2.7,5.751h6.448c.264-6.754-2.438-10.458-9.147-10.458-10.851,0-10.851,7.932-10.851,16.253,0,8.236,0,16.253,10.851,16.253,6.141,0,9.5-2.7,9.5-11.111h-6.492C1067.4,457.657,1067.535,461.578,1064.486,461.578Z" fill="#fff"/>
    <path id="Path_71" data-name="Path 71" d="M1084.742,460.925v-9.193h9.76v-4.838h-9.76v-7.755h10.59V434.3h-17.168v31.459h17.516v-4.836Z" fill="#fff"/>
  </g>
</svg>
