<svg xmlns="http://www.w3.org/2000/svg" viewBox="0 0 32 32" role="img" aria-label="ATND icon">
  <rect width="32" height="32" rx="6" fill="#1f2937" />
  <path
    d="M8 23V9h4.1l2.4 9.6L17.1 9h4v14h-2.6V13.4l-2.9 9.6h-2.8l-2.9-9.6V23H8Zm12.6-7.4 2.7-.8c.3 1 .7 1.8 1.3 2.3.8.8 1.9 1.2 3.3 1.2 1.1 0 2-.3 2.6-.8.6-.6.9-1.3.9-2.1 0-.5-.1-.9-.4-1.2-.3-.4-.7-.7-1.3-.9-.4-.2-.8-.3-1.9-.6l-1.5-.4c-1.8-.5-3.2-1.2-4.1-2-.9-.8-1.4-1.9-1.4-3.2 0-1 .3-2 1-2.7.7-.7 1.6-1.2 2.8-1.5 1.1-.3 2.4-.5 3.7-.5 2.1 0 3.8.5 5 1.5 1.1 1 1.8 2.3 1.9 3.9l-2.7.1c-.2-.8-.5-1.5-1.1-1.9-.5-.4-1.4-.7-2.6-.7-1.1 0-1.8.2-2.3.6-.4.3-.7.8-.7 1.4 0 .5.2.9.7 1.2.4.2 1.4.5 3 .9 1.8.6.2 1.1.4 1.5.6 1.4.5 2.4 1.1 3 1.7.6.6.9 1.6.9 2.8 0 1.1-.3 2-.8 2.8-.6.8-1.4 1.4-2.5 1.8-1 .4-2.2.6-3.6.6-2.3 0-4.2-.6-5.5-1.8-1.2-1.2-2-2.8-2.1-4.8Z"
    fill="#ffffff"
  />
</svg>
<svg width="64" height="64" viewBox="0 0 64 64" xmlns="http://www.w3.org/2000/svg">
  <!-- Background -->
  <rect width="64" height="64" rx="14" fill="#16A34A"></rect>

  <!-- Inner circle -->
  <circle cx="32" cy="32" r="18" fill="#F3F4F6"></circle>

  <!-- Letter -->
  <text x="32" y="38" text-anchor="middle" font-size="24" font-weight="700" font-family="Inter, system-ui, -apple-system, sans-serif" fill="#16A34A">
    a
  </text>
</svg>
